<?xml version="1.0" encoding="utf-8"?>
<!-- Generator: Adobe Illustrator 19.0.0, SVG Export Plug-In . SVG Version: 6.00 Build 0)  -->
<svg version="1.1" id="圖層_1" xmlns="http://www.w3.org/2000/svg" xmlns:xlink="http://www.w3.org/1999/xlink" x="0px" y="0px" style="enable-background:new 0 0 595.3 841.9;" xml:space="preserve">
<style type="text/css">
	.st0{fill:none;stroke:#000000;stroke-miterlimit:10;}
</style>
<g id="XMLID_1509_">
	<path id="XMLID_1510_" class="st0" d="M181.3,84.6c0,9.2-7.5,16.6-16.6,16.6c-6,0-11.2-3.1-14.1-7.8c-0.2-0.3-0.4-0.6-0.5-0.9
		c-2.9-4.7-8.2-7.8-14.1-7.8c6,0,11.2-3.1,14.1-7.9c0.2-0.3,0.4-0.6,0.5-0.9c2.9-4.7,8.2-7.8,14.1-7.8
		C173.8,68,181.3,75.4,181.3,84.6z"/>
</g>
<path id="XMLID_1508_" class="st0" d="M232,46.9c-1.3,0-2.6,0.1-3.8,0.2l0,0c-7,0.7-13.4,3.3-18.8,7.3c-2.2,1.7-4.3,3.6-6.1,5.7
	c-0.5,0.6-1,1.2-1.4,1.8h-0.1V62c-1.3,1.7-2.4,3.5-3.3,5.4c-1.9,3.8-3.2,7.9-3.8,12.2v0.1c-0.1,0.3-0.1,0.7-0.1,1
	c-0.1,0.7-0.2,1.4-0.2,2.1l0,0l0,0l0,0l0,0c0,0.5-0.1,1.1-0.1,1.6s0,1.1,0.1,1.6l0,0l0,0l0,0l0,0c0,0.6-0.1,1.3-0.2,1.9v-0.4
	c0,0.2,0,0.4-0.1,0.6c0,0.3-0.1,0.7-0.1,1c0,0,0,0,0,0.1c-0.5,4.1-1.7,8-3.4,11.6c-1.1,2.2-2.3,4.2-3.8,6.2
	c-0.3,0.4-0.5,0.7-0.8,1.1c-2,2.4-4.2,4.6-6.7,6.4c-5.8,4.3-12.8,7.1-20.5,7.5h-4.2c-4-0.2-7.8-1-11.3-2.4c1.6-1.2,2.8-3,3.2-5.1
	c0.1-0.6,0.2-1.1,0.2-1.7c3.1,1.1,6.5,1.7,10,1.7c1.3,0,2.6-0.1,3.8-0.3l0,0c6.1-0.8,11.7-3.4,16.1-7.3c2.2-1.9,4-4.1,5.6-6.6
	c2.3-3.6,3.8-7.8,4.4-12.3c0.2-1.2,0.3-2.5,0.3-3.8s0.1-2.5,0.2-3.8c0.4-4.2,1.5-8.1,3.2-11.7c0.1-0.3,0.3-0.6,0.4-0.9
	c1-2.1,2.2-4.1,3.6-6c0-0.1,0.1-0.1,0.1-0.2c0.3-0.4,0.6-0.7,0.8-1.1c1.6-2,3.5-3.8,5.4-5.5c0.4-0.3,0.8-0.7,1.3-1
	c6.3-4.7,14.1-7.5,22.6-7.5h7.5V46.9z"/>
<path id="XMLID_1507_" class="st0" d="M178.2,44.8c-0.9,0.5-1.7,1.2-2.4,2c-1,1.2-1.6,2.7-1.8,4.3c-5.2-2.7-11.1-4.3-17.4-4.3
	c-8.5,0-16.3,2.8-22.6,7.5c-2.5,1.9-4.7,4-6.7,6.4c-0.3,0.4-0.6,0.7-0.8,1.1c-1.5,1.9-2.7,4-3.8,6.2c-1.9,3.9-3.1,8.2-3.6,12.7
	c-0.1,1.2-0.2,2.5-0.2,3.8s-0.1,2.5-0.3,3.8c-0.5,4.5-2.1,8.6-4.4,12.3c-1.5,2.4-3.3,4.6-5.4,6.4c0,0-0.1,0.1-0.2,0.1
	c-5.3,4.7-12.3,7.5-19.9,7.5h-23c0-0.1,0.1-0.2,0.2-0.3c0.1-0.2,0.3-0.4,0.4-0.7c0.4-0.8,0.9-1.6,1.3-2.4c0.6-1.3,1.2-2.6,1.8-3.9
	l0,0c0-0.1,0.1-0.2,0.1-0.3c1-2.5,1.8-5,2.5-7.6c0.9-3.6,1.5-7.4,1.8-11.2c0.1-1.2,0.1-2.5,0.1-3.8s0-2.5-0.1-3.8
	C73.6,76.8,73,73,72,69.4c-0.7-2.6-1.5-5.2-2.5-7.6c0-0.1-0.1-0.2-0.1-0.3l0,0c-0.5-1.3-1.1-2.6-1.8-3.9c-0.4-0.8-0.8-1.6-1.3-2.4
	c-0.1-0.2-0.3-0.4-0.4-0.7c-0.1-0.1-0.1-0.2-0.2-0.3h15.6c1.3,0,2.5,0.1,3.8,0.3c1.3,0.1,2.5,0.4,3.8,0.7c4.7,1.2,8.9,3.5,12.4,6.6
	c2,1.8,3.8,3.8,5.3,6.1c2.5,3.7,4.1,8,4.7,12.7h-0.1c-0.7-4.1-2.5-7.9-5.1-10.9c-4.1-4.8-10.3-7.9-17.1-7.9H77.4
	c0.3,0.9,0.6,1.7,0.9,2.6c1.6,5.2,2.6,10.6,2.9,16.2c0.1,1.3,0.1,2.5,0.1,3.8s0,2.5-0.1,3.8c-0.3,5.6-1.3,11.1-2.9,16.2l0,0
	c-0.3,0.9-0.5,1.7-0.9,2.6h11.4c6.9,0,13-3.1,17.1-7.9c2.6-3.1,4.4-6.8,5.1-11h0.1c0.1-0.6,0.2-1.3,0.2-1.9c0-0.2,0-0.4,0-0.7
	c0-0.4,0-0.8,0-1.2c0-1.3,0-2.5,0.2-3.8c0.4-4.3,1.3-8.4,2.8-12.2c0.9-2.3,1.9-4.5,3.1-6.6c0.2-0.4,0.4-0.7,0.6-1.1
	c1.4-2.2,2.9-4.3,4.6-6.2c0.1-0.1,0.1-0.2,0.2-0.2c2.6-2.9,5.5-5.4,8.7-7.5c7.1-4.8,15.7-7.5,25-7.5
	C164.4,39.4,171.8,41.3,178.2,44.8z"/>
<circle id="XMLID_1506_" class="st0" cx="182.5" cy="52.3" r="3.8"/>
<circle id="XMLID_1505_" class="st0" cx="137.9" cy="112.9" r="3.8"/>
<g id="XMLID_1501_">
	<path id="XMLID_1502_" class="st0" d="M156.6,54.4c-7.6,0-14.6,2.8-19.9,7.5c-2.2,1.9-4.1,4.1-5.6,6.6c-2.3,3.6-3.8,7.8-4.4,12.2
		c-0.2,1.2-0.3,2.5-0.3,3.8s-0.1,2.5-0.2,3.8c-0.5,4.5-1.7,8.8-3.6,12.7c-1,2.2-2.3,4.2-3.8,6.2c-0.3,0.4-0.6,0.7-0.8,1.1
		c-1.6,2-3.5,3.8-5.4,5.5c-0.4,0.3-0.8,0.7-1.3,1c-5.8,4.3-12.8,7.1-20.5,7.5c-0.7,0-1.4,0.1-2.1,0.1s-1.4,0-2.1-0.1H54.9
		c1-1.5,2-3.1,2.9-4.7c0.3-0.5,0.6-1.1,0.9-1.6c0.2-0.4,0.4-0.7,0.6-1.1c0.7-1.4,1.4-2.9,2-4.4c0.3-0.8,0.6-1.6,0.9-2.4
		c0.1-0.2,0.2-0.5,0.3-0.7c0.6-1.8,1.2-3.5,1.7-5.4l0,0c1.1-4.3,1.8-8.8,2.1-13.5c0-0.2,0-0.3,0-0.5v-6.5c0-0.2,0-0.3,0-0.5
		c-0.3-4.6-1-9.1-2.1-13.4l0,0c-0.5-1.8-1-3.6-1.7-5.4c-0.1-0.2-0.2-0.5-0.3-0.7c-0.3-0.8-0.6-1.6-0.9-2.4c-0.6-1.5-1.3-3-2-4.4
		c-0.2-0.4-0.4-0.7-0.6-1.1c-0.3-0.5-0.6-1.1-0.9-1.6c-0.9-1.6-1.9-3.2-2.9-4.8h33.9c3.9,0,7.6,0.6,11.1,1.7
		c0.1,2.3,1.1,4.3,2.7,5.8s3.7,2.4,6,2.4c1.3,0,2.5-0.3,3.6-0.8l0,0c0.3-0.1,0.5-0.3,0.8-0.4c0.6-0.3,1.2-0.8,1.7-1.2
		c1.3-1.3,2.3-3,2.6-4.9v-0.1c0.1-0.4,0.1-0.8,0.1-1.2s0-0.9-0.1-1.3c-0.6-4.2-4.2-7.4-8.6-7.4c-2.2,0-4.2,0.8-5.7,2.1
		c-4.5-1.5-9.2-2.3-14.1-2.3H38.4c1.8,1.6,3.6,3.4,5.2,5.2c0.7,0.7,1.3,1.5,1.9,2.3c1.9,2.4,3.6,4.9,5.2,7.5
		c0.2,0.3,0.3,0.5,0.4,0.8c0.5,0.8,0.9,1.7,1.3,2.5c0.7,1.4,1.3,2.8,1.9,4.3c0.6,1.4,1.1,2.8,1.5,4.3c0.2,0.5,0.3,0.9,0.4,1.4
		c1.2,4.2,2,8.6,2.3,13.2l0,0v0.5c0,0.5,0,1,0.1,1.4c0,0.6,0,1.2,0,1.8s0,1.2,0,1.8c0,0.5,0,1-0.1,1.4v0.5l0,0
		c-0.3,4.6-1.1,9-2.3,13.2c-0.1,0.5-0.3,0.9-0.4,1.4c-0.5,1.4-1,2.9-1.5,4.2c-0.6,1.5-1.2,2.9-1.9,4.3c-0.4,0.9-0.9,1.7-1.3,2.5
		c-0.1,0.3-0.3,0.5-0.4,0.8c-1.5,2.6-3.2,5.1-5.1,7.5c-0.6,0.8-1.3,1.6-2,2.4c-1.6,1.8-3.4,3.6-5.3,5.2h50.4
		c9.3,0,17.9-2.8,25.1-7.6c1.2-0.8,2.3-1.6,3.4-2.5c1.9-1.5,3.6-3.2,5.2-5c0.1-0.1,0.1-0.2,0.2-0.2c1.7-1.9,3.2-4,4.6-6.2
		c0.2-0.4,0.4-0.7,0.6-1.1c1.2-2.1,2.3-4.3,3.1-6.6c1.5-3.9,2.4-8,2.8-12.3c0.1-1.2,0.2-2.5,0.2-3.8s0.1-2.5,0.3-3.8
		c0-0.1,0-0.1,0-0.2c0,0,0-0.1,0-0.2c1-7.3,4.6-13.8,9.9-18.5c3.5-3.1,7.7-5.3,12.3-6.6c1.2-0.3,2.5-0.6,3.8-0.7
		C159.1,54.5,157.9,54.4,156.6,54.4z M105.1,46.9c0.5-1.4,1.9-2.5,3.5-2.5c0.5,0,1.1,0.1,1.5,0.3c0.1,0.1,0.3,0.1,0.4,0.2
		c0.7,0.4,1.3,1.1,1.6,1.9c0.2,0.4,0.2,0.8,0.2,1.3c0,2.1-1.7,3.8-3.8,3.8c-0.6,0-1.3-0.2-1.8-0.4c0,0-0.1,0-0.1-0.1
		c-1.1-0.6-1.9-1.9-1.9-3.3C104.8,47.7,104.9,47.3,105.1,46.9z"/>
</g>
</svg>
