<?xml version="1.0" encoding="utf-8"?>
<!-- Generator: Adobe Illustrator 19.0.0, SVG Export Plug-In . SVG Version: 6.00 Build 0)  -->
<svg version="1.1" id="å_x9C__x96_å_xB1__xA4__x5F_1"
	 xmlns="http://www.w3.org/2000/svg" xmlns:xlink="http://www.w3.org/1999/xlink" x="0px" y="0px" viewBox="0 0 400 200"
	 style="enable-background:new 0 0 595.3 841.9;" xml:space="preserve">
<style type="text/css">
	.st0{fill:none;stroke:#000000;stroke-miterlimit:10;}
</style>
<g id="XMLID_1509_">
	<path id="XMLID_1510_" class="st0" d="M289.9,101.5c0,16.3-13.2,29.3-29.3,29.3c-10.6,0-19.8-5.5-24.9-13.8
		c-0.4-0.5-0.7-1.1-0.9-1.6c-5.1-8.3-14.5-13.8-24.9-13.8c10.6,0,19.8-5.5,24.9-14c0.4-0.5,0.7-1.1,0.9-1.6
		c5.1-8.3,14.5-13.8,24.9-13.8C276.7,72.2,289.9,85.3,289.9,101.5z"/>
</g>
<path id="XMLID_1508_" class="st0" d="M379.5,34.9c-2.3,0-4.6,0.2-6.7,0.4l0,0c-12.4,1.2-23.7,5.8-33.2,12.9
	c-3.9,3-7.6,6.4-10.8,10.1c-0.9,1.1-1.8,2.1-2.5,3.2h-0.2v0.2c-2.3,3-4.2,6.2-5.8,9.5c-3.4,6.7-5.7,14-6.7,21.6v0.2
	c-0.2,0.5-0.2,1.2-0.2,1.8c-0.2,1.2-0.4,2.5-0.4,3.7l0,0l0,0l0,0l0,0c0,0.9-0.2,1.9-0.2,2.8s0,1.9,0.2,2.8l0,0l0,0l0,0l0,0
	c0,1.1-0.2,2.3-0.4,3.4v-0.7c0,0.4,0,0.7-0.2,1.1c0,0.5-0.2,1.2-0.2,1.8c0,0,0,0,0,0.2c-0.9,7.2-3,14.1-6,20.5
	c-1.9,3.9-4.1,7.4-6.7,11c-0.5,0.7-0.9,1.2-1.4,1.9c-3.5,4.2-7.4,8.1-11.8,11.3c-10.2,7.6-22.6,12.5-36.2,13.2h-7.4
	c-7.1-0.4-13.8-1.8-20-4.2c2.8-2.1,4.9-5.3,5.7-9c0.2-1.1,0.4-1.9,0.4-3c5.5,1.9,11.5,3,17.7,3c2.3,0,4.6-0.2,6.7-0.5l0,0
	c10.8-1.4,20.7-6,28.4-12.9c3.9-3.4,7.1-7.2,9.9-11.7c4.1-6.4,6.7-13.8,7.8-21.7c0.4-2.1,0.5-4.4,0.5-6.7s0.2-4.4,0.4-6.7
	c0.7-7.4,2.6-14.3,5.7-20.7c0.2-0.5,0.5-1.1,0.7-1.6c1.8-3.7,3.9-7.2,6.4-10.6c0-0.2,0.2-0.2,0.2-0.4c0.5-0.7,1.1-1.2,1.4-1.9
	c2.8-3.5,6.2-6.7,9.5-9.7c0.7-0.5,1.4-1.2,2.3-1.8c11.1-8.3,24.9-13.2,39.9-13.2h13.2L379.5,34.9L379.5,34.9z"/>
<path id="XMLID_1507_" class="st0" d="M284.5,31.2c-1.6,0.9-3,2.1-4.2,3.5c-1.8,2.1-2.8,4.8-3.2,7.6c-9.2-4.8-19.6-7.6-30.7-7.6
	c-15,0-28.8,4.9-39.9,13.2c-4.4,3.4-8.3,7.1-11.8,11.3c-0.5,0.7-1.1,1.2-1.4,1.9c-2.6,3.4-4.8,7.1-6.7,11
	c-3.4,6.9-5.5,14.5-6.4,22.4c-0.2,2.1-0.4,4.4-0.4,6.7c0,2.3-0.2,4.4-0.5,6.7c-0.9,7.9-3.7,15.2-7.8,21.7c-2.6,4.2-5.8,8.1-9.5,11.3
	c0,0-0.2,0.2-0.4,0.2c-9.4,8.3-21.7,13.2-35.2,13.2H85.7c0-0.2,0.2-0.4,0.4-0.5c0.2-0.4,0.5-0.7,0.7-1.2c0.7-1.4,1.6-2.8,2.3-4.2
	c1.1-2.3,2.1-4.6,3.2-6.9l0,0c0-0.2,0.2-0.4,0.2-0.5c1.8-4.4,3.2-8.8,4.4-13.4c1.6-6.4,2.6-13.1,3.2-19.8c0.2-2.1,0.2-4.4,0.2-6.7
	s0-4.4-0.2-6.7c-0.4-6.7-1.4-13.4-3.2-19.8c-1.2-4.6-2.6-9.2-4.4-13.4c0-0.2-0.2-0.4-0.2-0.5l0,0c-0.9-2.3-1.9-4.6-3.2-6.9
	c-0.7-1.4-1.4-2.8-2.3-4.2c-0.2-0.4-0.5-0.7-0.7-1.2c-0.2-0.2-0.2-0.4-0.4-0.5h27.6c2.3,0,4.4,0.2,6.7,0.5c2.3,0.2,4.4,0.7,6.7,1.2
	c8.3,2.1,15.7,6.2,21.9,11.7c3.5,3.2,6.7,6.7,9.4,10.8c4.4,6.5,7.2,14.1,8.3,22.4h-0.2c-1.2-7.2-4.4-14-9-19.3
	c-7.2-8.5-18.2-14-30.2-14h-20.5c0.5,1.6,1.1,3,1.6,4.6c2.8,9.2,4.6,18.7,5.1,28.6c0.2,2.3,0.2,4.4,0.2,6.7c0,2.3,0,4.4-0.2,6.7
	c-0.5,9.9-2.3,19.6-5.1,28.6l0,0c-0.5,1.6-0.9,3-1.6,4.6h20.1c12.2,0,23-5.5,30.2-14c4.6-5.5,7.8-12,9-19.4h0.2
	c0.2-1.1,0.4-2.3,0.4-3.4c0-0.4,0-0.7,0-1.2c0-0.7,0-1.4,0-2.1c0-2.3,0-4.4,0.4-6.7c0.7-7.6,2.3-14.8,4.9-21.6
	c1.6-4.1,3.4-7.9,5.5-11.7c0.4-0.7,0.7-1.2,1.1-1.9c2.5-3.9,5.1-7.6,8.1-11c0.2-0.2,0.2-0.4,0.4-0.4c4.6-5.1,9.7-9.5,15.4-13.2
	c12.5-8.5,27.7-13.2,44.2-13.2C260.1,21.7,273.1,25,284.5,31.2z"/>
<path id="XMLID_1506_" class="st0" d="M285.3,44.5c0-3.7,3-6.7,6.7-6.7c3.7,0,6.7,3,6.7,6.7c0,3.7-3,6.7-6.7,6.7
	C288.3,51.2,285.3,48.2,285.3,44.5L285.3,44.5"/>
<path id="XMLID_1505_" class="st0" d="M206.5,151.5c0-3.7,3-6.7,6.7-6.7s6.7,3,6.7,6.7c0,0,0,0,0,0c0,3.7-3,6.7-6.7,6.7
	C209.6,158.2,206.6,155.2,206.5,151.5C206.5,151.5,206.5,151.5,206.5,151.5"/>
<g id="XMLID_1501_">
	<path id="XMLID_1502_" class="st0" d="M246.3,48.2c-13.4,0-25.8,4.9-35.2,13.2c-3.9,3.4-7.2,7.2-9.9,11.7
		c-4.1,6.4-6.7,13.8-7.8,21.6c-0.4,2.1-0.5,4.4-0.5,6.7c0,2.3-0.2,4.4-0.4,6.7c-0.9,7.9-3,15.5-6.4,22.4c-1.8,3.9-4.1,7.4-6.7,11
		c-0.5,0.7-1.1,1.2-1.4,1.9c-2.8,3.5-6.2,6.7-9.5,9.7c-0.7,0.5-1.4,1.2-2.3,1.8c-10.2,7.6-22.6,12.5-36.2,13.2
		c-1.2,0-2.5,0.2-3.7,0.2c-1.2,0-2.5,0-3.7-0.2h-56c1.8-2.6,3.5-5.5,5.1-8.3c0.5-0.9,1.1-1.9,1.6-2.8c0.4-0.7,0.7-1.2,1.1-1.9
		c1.2-2.5,2.5-5.1,3.5-7.8c0.5-1.4,1.1-2.8,1.6-4.2c0.2-0.4,0.4-0.9,0.5-1.2c1.1-3.2,2.1-6.2,3-9.5l0,0c1.9-7.6,3.2-15.5,3.7-23.8
		c0-0.4,0-0.5,0-0.9V96c0-0.4,0-0.5,0-0.9C86.2,87,85,79.1,83.1,71.5l0,0c-0.9-3.2-1.8-6.4-3-9.5c-0.2-0.4-0.4-0.9-0.5-1.2
		c-0.5-1.4-1.1-2.8-1.6-4.2c-1.1-2.6-2.3-5.3-3.5-7.8c-0.4-0.7-0.7-1.2-1.1-1.9c-0.5-0.9-1.1-1.9-1.6-2.8c-1.6-2.8-3.4-5.7-5.1-8.5
		h59.9c6.9,0,13.4,1.1,19.6,3c0.2,4.1,1.9,7.6,4.8,10.2s6.5,4.2,10.6,4.2c2.3,0,4.4-0.5,6.4-1.4l0,0c0.5-0.2,0.9-0.5,1.4-0.7
		c1.1-0.5,2.1-1.4,3-2.1c2.3-2.3,4.1-5.3,4.6-8.7v-0.2c0.2-0.7,0.2-1.4,0.2-2.1s0-1.6-0.2-2.3c-1.1-7.4-7.4-13.1-15.2-13.1
		c-3.9,0-7.4,1.4-10.1,3.7c-7.9-2.6-16.3-4.1-24.9-4.1H37.5c3.2,2.8,6.4,6,9.2,9.2c1.2,1.2,2.3,2.6,3.4,4.1
		c3.4,4.2,6.4,8.7,9.2,13.2c0.4,0.5,0.5,0.9,0.7,1.4c0.9,1.4,1.6,3,2.3,4.4c1.2,2.5,2.3,4.9,3.4,7.6c1.1,2.5,1.9,4.9,2.6,7.6
		c0.4,0.9,0.5,1.6,0.7,2.5c2.1,7.4,3.5,15.2,4.1,23.3l0,0v0.9c0,0.9,0,1.8,0.2,2.5c0,1.1,0,2.1,0,3.2s0,2.1,0,3.2
		c0,0.9,0,1.8-0.2,2.5v0.9l0,0c-0.5,8.1-1.9,15.9-4.1,23.3c-0.2,0.9-0.5,1.6-0.7,2.5c-0.9,2.5-1.8,5.1-2.6,7.4
		c-1.1,2.6-2.1,5.1-3.4,7.6c-0.7,1.6-1.6,3-2.3,4.4c-0.2,0.5-0.5,0.9-0.7,1.4c-2.6,4.6-5.7,9-9,13.2c-1.1,1.4-2.3,2.8-3.5,4.2
		c-2.8,3.2-6,6.4-9.4,9.2h89c16.4,0,31.6-4.9,44.3-13.4c2.1-1.4,4.1-2.8,6-4.4c3.4-2.6,6.4-5.7,9.2-8.8c0.2-0.2,0.2-0.4,0.4-0.4
		c3-3.4,5.7-7.1,8.1-11c0.4-0.7,0.7-1.2,1.1-1.9c2.1-3.7,4.1-7.6,5.5-11.7c2.6-6.9,4.2-14.1,4.9-21.7c0.2-2.1,0.4-4.4,0.4-6.7
		c0-2.3,0.2-4.4,0.5-6.7c0-0.2,0-0.2,0-0.4c0,0,0-0.2,0-0.4c1.8-12.9,8.1-24.4,17.5-32.7c6.2-5.5,13.6-9.4,21.7-11.7
		c2.1-0.5,4.4-1.1,6.7-1.2C250.7,48.3,248.6,48.2,246.3,48.2z M155.3,34.9c0.9-2.5,3.4-4.4,6.2-4.4c0.9,0,1.9,0.2,2.6,0.5
		c0.2,0.2,0.5,0.2,0.7,0.4c1.2,0.7,2.3,1.9,2.8,3.4c0.4,0.7,0.4,1.4,0.4,2.3c0,3.7-3,6.7-6.7,6.7c-1.1,0-2.3-0.4-3.2-0.7
		c0,0-0.2,0-0.2-0.2c-1.9-1.1-3.4-3.4-3.4-5.8C154.8,36.3,155,35.6,155.3,34.9z"/>
</g>
</svg>
